<?xml version="1.0" encoding="UTF-8"?>
<svg enable-background="new 0 0 317.683 390.479" viewBox="0 0 317.683 390.479" xmlns="http://www.w3.org/2000/svg">
 <path d="m128.51,293.233c-26.005-13.581-43.604-25.922-53.749-37.64-10.021-11.843-12.132-22.278-6.335-32.258-13.955-7.454-23.687-16.522-29.814-27.372-6.004-11.014-8.24-23.229-6.377-37.599-10.518-10.808-17.35-20.373-20.497-28.862-3.147-8.613-2.774-15.736 1.45-21.988-8.573-19.627-12.797-33.375-13.17-42.029-.456-8.696 1.946-19.503 11.222-9.275 9.317,10.352 25.466,47.91 44.473,70.851 18.924,22.94 41.409,44.349 68.408,65.508-1.574-16.439-.746-31.387 2.939-45.466 3.686-14.204 9.607-26.75 18.551-38.593-.869-17.102 1.905-31.057 8.323-42.527 6.419-11.429 16.191-20 29.814-25.88 .414-6.501 2.36-11.512 5.839-15.652 3.478-4.059 8.199-7.04 14.659-8.779 6.915-10.973 12.298-15.984 16.149-15.653 3.851.373 7.453,4.969 6.832,18.096-.87,13.251-9.523,40.208-11.264,60.084-1.739,19.669 4.928,37.931.994,57.186-4.182,19.214-23.728,38.22-24.928,57.185-1.201,18.925 9.938,43.977 18.095,55.198 8.158,10.933 20.125,10.684 30.312,10.27 10.228-.497 20.746-12.878 29.773-13.209 8.778-.455 14.41,7.081 22.484,10.767 7.909,3.644 16.108,7.08 24.928,10.766-15.278,3.313-27.329,8.902-36.646,17.102-9.358,8.199-5.384,21.45-19.049,31.761-13.913,10.146-40.373,25.881-63.065,28.82-22.775,2.733-46.502-1.284-72.3-12.216-18.8,21.657-34.825,36.979-48.862,46.916-14.12,9.649-30.104,12.589-34.701,11.72-4.514-.911-1.905-6.295 7.826-16.605-25.052,6.129-39.338,7.702-43.976,4.886-4.431-2.939 1.118-10.104 17.102-21.988-14.162,2.899-19.752,2.237-17.102-1.986 2.733-4.349 12.795-13.169 33.21-23.438 20.5-10.439 49.444-22.82 88.452-38.101z" fill-rule="evenodd" stroke="#000" stroke-miterlimit="10" stroke-width=".036"/>
 <path d="m137.33,272.695c-4.265-5.922-8.281-12.547-12.215-20.539-4.017-8.034-11.926-20.87-11.264-26.875 .787-5.92 5.797-8.903 15.653-8.778l6.833,20.539c-3.354-14.741-5.632-26.211-6.833-35.198-1.201-8.985-.994-9.276-.497-18.096 .29-8.986-.497-23.106 2.443-34.701 2.816-11.594 7.702-22.774 14.659-34.204-.786,16.274-.786,29.649 0,41.078 .745,11.263 2.153,20.001 4.39,26.377-.704-29.027-.704-51.471 0-68.904 .496-17.268 1.283-24.887 3.934-34.204 2.733-9.483 7.329-16.812 12.215-21.988 4.68-5.3 10.104-8.241 16.108-9.275l-4.887,36.149c3.976-13.748 7.248-25.218 10.271-35.198 2.774-10.063 4.845-19.213 7.33-23.935 2.524-4.679 5.134-5.921 7.825-3.892l-7.825,32.713c4.223-9.896 7.494-18.468 10.269-25.88 2.649-7.66 3.313-15.197 5.839-18.593 2.401-3.395 7.578-6.169 8.82-.952 1.034,5.341-.373,20.621-1.988,32.257-1.739,11.47-6.998,23.313-7.784,36.149-.746,12.795 3.478,28.986 3.396,40.084-.042,10.808-.539,15.28-4.39,25.384-4.224,10.27-16.066,23.271-20.042,35.197-4.059,11.595-5.714,22.361-3.396,34.701 2.359,12.34 10.559,29.938 17.557,38.593 6.792,8.322 15.197,10.684 23.479,12.216 8.198,1.49 17.848-.869 25.425-2.94 7.371-2.235 12.919-9.648 19.048-9.773 6.046.042 11.264,6.544 17.103,9.276 5.755,2.568 11.305,4.472 17.102,5.881-13.333,3.064-23.064,7.246-29.814,13.167-6.75,5.839-6.129,15.032-10.269,21.533-4.266,6.252-4.68,10.187-15.157,16.604-10.724,6.419-33.499,18.428-48.365,21.988-14.948,3.354-28.778.207-40.539-1.449-11.843-1.698-21.574-4.555-29.814-8.571l31.761-29.814c-5.383,2.318-12.381,7.04-21.491,14.161-9.193,7.206-20.539,17.517-32.754,28.365-12.34,10.684-30.767,29.276-40.084,35.653-9.358,6.212-17.391,5.962-15.155,1.987 2.402-4.183 11.76-12.836 28.862-26.419-18.634,9.938-33.417,16.564-44.97,20.042-11.677,3.354-22.32,2.609-23.935.497-1.49-2.319 5.839-7.577 14.659-13.21 8.696-5.59 20.87-12.216 37.144-20.041-20.498,7.536-34.618,11.843-43.024,13.706-8.447,1.574-11.677.165-6.833-3.438 4.928-3.686 15.487-8.53 36.15-18.053 20.621-9.691 49.028-22.403 86.503-39.091-17.102-8.986-30.684-16.978-41.534-24.432-10.932-7.494-18.965-12.837-22.981-20.042-4.058-7.204-4.265-14.865-.952-22.982l31.76,15.157c-13.748-7.868-25.425-14.99-35.198-21.989-10.021-6.957-18.054-12.505-23.437-19.545-5.342-7.33-6.833-16.646-8.323-22.982-1.615-6.294-1.946-10.849-.994-14.162l19.09,17.599c-10.274-11.713-18.431-21.817-24.932-30.803-6.625-9.027-11.346-17.102-13.706-22.94-2.319-5.88-2.319-9.896 0-12.216l17.599,27.62c-8.447-13.872-15.073-26.916-20.042-40.083-5.094-13.294-10.436-34.04-9.773-38.139 .621-3.934 6.833,4.099 13.707,14.203 6.75,10.021 16.397,31.015 26.874,45.426 10.435,14.41 23.645,28.199 35.156,40.083 11.347,11.719 24.763,23.686 32.258,29.814 7.205,5.88 11.014,7.827 11.263,5.84v11.263c-6.667.372-11.015,2.483-13.21,6.832-2.194,4.224-4.431,9.068 0,18.551 4.348,9.4 12.837,21.782 25.922,37.641z" fill="#fff" fill-rule="evenodd" stroke="#000" stroke-miterlimit="10" stroke-width=".036"/>
</svg>
